<svg version="1.1" xmlns="http://www.w3.org/2000/svg" xmlns:xlink="http://www.w3.org/1999/xlink" width="700px" height="700px" viewBox="610 123 700 700" transform="rotate(0) scale(1, 1)"><g id="document" fill="#ffffff00" fill-rule="nonzero" font-family="none" font-weight="none" font-size="none"><rect x="610" y="87.85714" transform="scale(1,1.4)" width="700" height="500" id="Shape-1-1"/></g><g fill="none" fill-rule="nonzero" stroke="none" stroke-width="1" stroke-linecap="none" stroke-linejoin="none" stroke-miterlimit="10" font-family="none" font-weight="none" font-size="none"><g id="stage"><g id="layer1-1"><g id="Group-1"><g id="Group-1-1" fill="#ffffff00"><rect x="610" y="87.85714" transform="scale(1,1.4)" width="700" height="500" id="Shape-1"/></g><g id="Group-1-2" fill="#282431"><g id="Group-1-3"><g id="Group-1-4"><path d="M748.05057,490.97288l42.31331,-80.30872l50.63612,-15.66416l7,150l-43,72l245,-79l-103,154l-69,2l-24,77l-162,16l57,-92l-132,7l93.17146,-139.13432z" id="Path-1"/><path d="M992,417l154,-59l87,75l17,90l-143,151h66l128,-55l-40,154l-283,1l9,-76l116,-170l-6,-44l-72,41z" id="Path-1-1"/><g id="Group-1-5"><path d="M875,538l-17,-165l-31,-173l157,-41l115,41l36,111l-83,68l-89,24l32,103zM1005.01176,251.84706l-23.01176,-26.84706l-14,26l-35,14l29,21l-2,35l31,-14l33,9l-5,-32l18,-28l-31,-3z" id="CompoundPath-1"/></g></g></g></g></g></g></g></g></svg>